<svg xmlns="http://www.w3.org/2000/svg" version="1.1" xmlns:xlink="http://www.w3.org/1999/xlink" xmlns:svgjs="http://svgjs.dev/svgjs" viewBox="0 0 800 800"><defs><filter id="uuunion-blur" x="-100%" y="-100%" width="400%" height="400%" color-interpolation-filters="sRGB">
        <feGaussianBlur in="SourceGraphic" stdDeviation="15.5 20.5" result="blur"></feGaussianBlur>
        <feDropShadow stdDeviation="23.384615384615387" in="blur" dx="19" dy="19" flood-color="hsl(265, 9%, 16%)" flood-opacity="0.57" x="0%" y="0%" width="100%" height="100%"></feDropShadow>
      </filter><filter id="uuunion-blur2" x="-100%" y="-100%" width="400%" height="400%" color-interpolation-filters="sRGB">
        <feGaussianBlur in="SourceGraphic" stdDeviation="15.5 20.5" result="blur"></feGaussianBlur>
        <feDropShadow stdDeviation="23.384615384615387" in="blur" dx="-19" dy="-19" flood-color="hsl(265, 9%, 16%)" flood-opacity="0.57" x="0%" y="0%" width="100%" height="100%"></feDropShadow>
      </filter><linearGradient gradientTransform="rotate(118, 0.5, 0.5)" x1="50%" y1="0%" x2="50%" y2="100%" id="uuunion-grad"><stop stop-color="hsl(0, 0%, 0%)" offset="10%"></stop><stop stop-color="hsl(265, 9%, 16%)" offset="90%"></stop></linearGradient><linearGradient gradientTransform="rotate(30, 0.5, 0.5)" x1="50%" y1="0%" x2="50%" y2="100%" id="uuunion-grad2"><stop stop-color="hsl(0, 0%, 0%)" offset="25%"></stop><stop stop-color="hsl(265, 9%, 16%)" offset="100%"></stop></linearGradient><linearGradient gradientTransform="rotate(111, 0.5, 0.5)" x1="50%" y1="0%" x2="50%" y2="100%" id="uuunion-grad3"><stop stop-color="hsl(0, 0%, 0%)" offset="0%"></stop><stop stop-color="hsl(265, 9%, 16%)" offset="75%"></stop></linearGradient></defs><path d="M-80.69 -84.41Q-65.75 -80.57 -50.8 -76.65 -35.86 -73.2 -20.92 -70.69 -5.97 -69.48 8.96 -69.72 23.91 -71.4 38.85 -74.27 53.79 -77.93 68.74 -81.88 83.68 -85.57 98.63 -88.49 113.57 -90.22 128.51 -90.53 143.46 -89.38 158.4 -86.92 173.35 -83.5 188.29 -79.6 203.23 -75.74 218.18 -72.48 233.12 -70.27 248.07 -69.4 263.01 -70.01 277.95 -72 292.9 -75.11 307.84 -78.89 322.79 -82.83 337.73 -86.38 352.67 -89.03 367.62 -90.43 382.56 -90.38 397.51 -88.89 412.45 -86.16 427.39 -82.57 442.34 -78.63 457.28 -74.87 472.23 -71.83 487.17 -69.92 502.11 -69.41 517.06 -70.38 532 -72.68 546.95 -75.99 561.89 -79.87 576.83 -83.76 591.78 -87.13 606.72 -89.5 621.67 -90.56 636.61 -90.15 651.55 -88.32 666.5 -85.34 681.44 -81.62 696.39 -77.67 711.33 -74.04 726.27 -71.24 741.22 -69.66 756.16 -69.51 771.11 -70.82 786.05 -73.41 800.99 -76.91 815.94 -80.84 830.88 -84.65 845.83 -87.81 860.77 -89.89 875.71 -90.59 875.8 -75.48 876.28 -60.37 877.13 -45.26 878.25 -30.14 879.55 -15.03 880.88 0.07 882.13 15.18 883.18 30.3 883.91 45.41 884.27 60.52 884.21 75.63 883.74 90.75 882.91 105.86 881.8 120.97 880.51 136.08 879.18 151.2 877.92 166.31 876.86 181.42 876.11 196.53 875.73 211.65 875.77 226.76 876.21 241.87 877.03 256.98 878.13 272.1 879.41 287.21 880.74 302.32 882.01 317.43 883.08 332.55 883.85 347.66 884.25 362.77 884.24 377.88 883.81 393 883.02 408.11 881.93 423.22 880.65 438.33 879.32 453.45 878.04 468.56 876.96 483.67 876.17 498.78 875.75 513.9 875.74 529.01 876.15 544.12 876.92 559.23 878 574.35 879.27 589.46 880.6 604.57 881.88 619.68 882.98 634.8 883.79 649.91 884.23 665.02 884.26 680.13 883.87 695.25 883.12 710.36 882.06 725.47 880.79 740.58 879.46 755.7 878.17 770.81 877.06 785.92 876.24 801.03 875.78 816.15 875.72 831.26 876.09 846.37 876.83 861.48 877.87 876.6 862.9 876.82 847.93 877.49 832.96 878.5 817.98 879.72 803.01 880.98 788.04 882.11 773.07 882.94 758.09 883.36 743.12 883.31 728.15 882.8 713.18 881.9 698.21 880.74 683.23 879.47 668.26 878.28 653.29 877.32 638.32 876.74 623.34 876.61 608.37 876.95 593.4 877.71 578.43 878.79 563.46 880.04 548.48 881.28 533.51 882.34 518.54 883.08 503.57 883.39 488.59 883.23 473.62 882.61 458.65 881.64 443.68 880.43 428.71 879.17 413.73 878.02 398.76 877.14 383.79 876.66 368.82 876.65 353.84 877.1 338.87 877.95 323.9 879.08 308.93 880.35 293.96 881.56 278.98 882.56 264.01 883.2 249.04 883.39 234.07 883.12 219.09 882.4 204.12 881.36 189.15 880.12 174.18 878.87 159.21 877.77 144.23 876.98 129.26 876.61 114.29 876.72 99.32 877.27 84.34 878.21 69.37 879.39 54.4 880.66 39.43 881.83 24.46 882.75 9.48 883.29 -5.48 883.37 -20.45 882.98 -35.42 882.17 -50.4 881.07 -65.37 879.81 -80.34 878.58 -80.51 863.53 -80.63 848.49 -80.69 833.44 -80.68 818.39 -80.61 803.35 -80.47 788.3 -80.29 773.25 -80.08 758.21 -79.86 743.16 -79.66 728.11 -79.49 713.07 -79.36 698.02 -79.3 682.97 -79.31 667.92 -79.38 652.88 -79.51 637.83 -79.69 622.78 -79.9 607.74 -80.11 592.69 -80.32 577.64 -80.49 562.6 -80.62 547.55 -80.69 532.5 -80.69 517.46 -80.62 502.41 -80.49 487.36 -80.31 472.32 -80.11 457.27 -79.89 442.22 -79.68 427.18 -79.5 412.13 -79.37 397.08 -79.3 382.04 -79.3 366.99 -79.37 351.94 -79.49 336.89 -79.67 321.85 -79.87 306.8 -80.09 291.75 -80.3 276.71 -80.48 261.66 -80.61 246.61 -80.68 231.57 -80.69 216.52 -80.63 201.47 -80.51 186.43 -80.33 171.38 -80.13 156.33 -79.91 141.29 -79.7 126.24 -79.52 111.19 -79.38 96.15 -79.31 81.1 -79.3 66.05 -79.36 51.01 -79.48 35.96 -79.65 20.91 -79.85 5.86 -80.07 -9.17 -80.28 -24.22 -80.46 -39.27 -80.6 -54.31 -80.68 -69.36 -80.69 -84.41" fill="url(#uuunion-grad)"></path><path d="M-80.69 -84.41Q-80.68 -69.36 -80.6 -54.31 -80.46 -39.27 -80.28 -24.22 -80.07 -9.17 -79.85 5.86 -79.65 20.91 -79.48 35.96 -79.36 51.01 -79.3 66.05 -79.31 81.1 -79.38 96.15 -79.52 111.19 -79.7 126.24 -79.91 141.29 -80.13 156.33 -80.33 171.38 -80.51 186.43 -80.63 201.47 -80.69 216.52 -80.68 231.57 -80.61 246.61 -80.48 261.66 -80.3 276.71 -80.09 291.75 -79.87 306.8 -79.67 321.85 -79.49 336.89 -79.37 351.94 -79.3 366.99 -79.3 382.04 -79.37 397.08 -69.34 398.75 -59.31 400.49 -49.27 402.2 -39.24 403.78 -29.21 405.12 -19.17 406.14 -0.37 406.94 2.88 406.99 15.44 400.34 28 393.04 40.53 385.19 53.05 376.94 65.55 368.47 78.03 360 90.48 351.75 102.9 343.9 115.3 336.63 127.68 330.03 140.02 324.15 152.35 318.97 164.64 314.38 176.92 310.24 189.18 306.35 201.43 302.47 213.66 298.38 225.89 293.87 238.11 288.76 250.34 282.93 262.57 276.34 274.82 269.01 287.08 261.03 299.36 252.57 311.67 243.84 324.01 235.06 336.39 226.49 348.8 218.36 361.25 210.85 373.74 204.09 386.27 198.14 398.85 192.98 411.47 188.51 424.13 184.57 436.83 180.94 449.56 177.36 462.33 173.59 475.13 169.37 487.95 164.51 500.79 158.86 513.64 152.36 526.49 145.02 539.34 136.94 552.18 128.29 565.01 119.29 577.81 110.21 590.59 101.33 603.32 92.89 616.02 85.12 628.67 78.18 641.26 72.12 653.81 66.96 666.29 62.58 678.71 58.82 691.07 55.44 703.37 52.17 715.61 48.71 727.8 44.8 739.93 40.21 752.02 34.76 764.06 28.38 776.06 21.06 788.04 12.9 800 4.08 798.57 -13.36 797.33 -30.81 796.44 -48.25 796.02 -65.7 796.12 -83.15 796.73 -100.59 797.77 -118.04 799.1 -135.49 784.21 -132.12 769.32 -129.84 754.42 -128.95 739.53 -129.58 724.63 -131.64 709.74 -134.84 694.85 -138.75 679.95 -142.84 665.06 -146.53 650.17 -149.32 635.27 -150.84 620.38 -150.87 605.48 -149.4 590.59 -146.64 575.7 -142.97 560.8 -138.9 545.91 -134.97 531.01 -131.73 516.12 -129.63 501.23 -128.95 486.33 -129.78 471.44 -132.02 456.55 -135.36 441.65 -139.32 426.76 -143.39 411.86 -146.98 396.97 -149.62 382.08 -150.94 367.18 -150.75 352.29 -149.09 337.4 -146.18 322.5 -142.42 307.61 -138.33 292.71 -134.46 277.82 -131.36 262.93 -129.44 248.03 -128.97 233.14 -130.02 218.25 -132.43 203.35 -135.88 188.46 -139.9 173.56 -143.93 158.67 -147.42 143.78 -149.89 128.88 -151 113.99 -150.6 99.1 -148.75 84.2 -145.69 69.31 -141.85 54.41 -137.76 39.52 -133.97 24.63 -131.01 9.73 -129.29 -5.15 -129.03 -20.05 -130.28 -34.94 -132.86 -49.83 -136.42 -64.73 -140.47 -79.62 -144.46 -94.51 -147.83 -109.41 -150.13 -124.3 -151.04 -134.32 -137.36 -117.42 -120.57 -108.25 -112.2 -99.07 -103.33 -89.89 -94.03 -80.69 -84.41" fill="url(#uuunion-grad2)" filter="url(#uuunion-blur)"></path><path d="M803.54 402.85Q813.58 401.18 823.61 399.44 833.64 397.73 843.68 396.16 853.71 394.83 863.74 393.82 878.4 400.65 881.93 423.22 880.65 438.33 879.32 453.45 878.04 468.56 876.96 483.67 876.17 498.78 875.75 513.9 875.74 529.01 876.15 544.12 876.92 559.23 878 574.35 879.27 589.46 880.6 604.57 881.88 619.68 882.98 634.8 883.79 649.91 884.23 665.02 884.26 680.13 883.87 695.25 883.12 710.36 882.06 725.47 880.79 740.58 879.46 755.7 878.17 770.81 877.06 785.92 876.24 801.03 875.78 816.15 875.72 831.26 876.09 846.37 876.83 861.48 877.87 876.6 864.13 876.78 850.39 877.35 836.65 878.23 822.91 879.31 809.17 880.47 795.43 881.58 781.69 882.5 767.95 883.13 754.21 883.39 740.47 883.25 726.73 882.73 712.99 881.89 699.25 880.83 685.51 879.67 671.77 878.54 658.03 877.59 644.29 876.92 630.55 876.61 616.81 876.7 603.07 877.17 589.33 877.98 575.59 879.02 561.85 880.17 548.11 881.31 534.37 882.29 520.63 883 506.89 883.36 493.15 883.33 479.41 882.9 465.67 882.13 451.93 881.12 438.19 879.97 424.45 878.82 410.71 877.81 396.97 877.06 383.23 876.65 369.49 876.64 355.75 877.01 342.01 877.74 328.27 878.73 314.53 879.87 300.79 881.03 287.05 882.06 273.31 882.85 259.57 883.31 245.83 883.37 232.09 883.04 218.35 882.36 204.61 881.4 190.87 880.27 177.13 879.11 163.38 878.05 149.64 877.23 135.9 876.72 122.16 876.6 108.42 876.88 94.68 877.52 80.94 878.46 67.2 879.57 53.46 880.73 39.72 881.81 25.98 882.67 5.29 878.35 -1.8 863.54 -1.9 853.62 -1.97 843.69 -1.99 833.77 -1.97 823.84 -1.61 808.96 -0.81 804 11.72 797.6 24.29 790.81 36.88 783.7 49.49 776.32 62.12 768.78 74.77 761.21 87.43 753.74 100.11 746.49 112.8 739.56 125.49 733.03 138.19 726.93 150.88 721.25 163.57 715.96 176.25 710.95 188.92 706.13 201.57 701.34 214.2 696.45 226.81 691.33 239.38 685.85 251.93 679.93 264.44 673.54 276.91 666.67 289.35 659.38 301.75 651.77 314.12 643.96 326.45 636.1 338.75 628.34 351.01 620.85 363.25 613.73 375.46 607.1 387.65 600.98 399.83 595.38 412 590.24 424.16 585.47 436.33 580.92 448.51 576.43 460.7 571.82 472.91 566.95 485.15 561.66 497.42 555.86 509.73 549.49 522.09 542.56 534.49 535.12 546.94 527.28 559.44 519.2 572 511.04 584.61 503 597.27 495.25 609.99 487.93 622.76 481.17 635.58 475.02 648.43 469.48 661.33 464.49 674.26 459.93 687.21 455.65 700.18 451.45 713.15 447.14 726.13 442.53 739.1 437.44 752.05 431.77 764.98 425.45 777.88 418.47 797.14 406.87 803.54 402.85" fill="url(#uuunion-grad3)" filter="url(#uuunion-blur2)"></path></svg>